<?xml version="1.0" encoding="iso-8859-1"?>
<!-- Generator: Adobe Illustrator 19.0.0, SVG Export Plug-In . SVG Version: 6.00 Build 0)  -->
<svg version="1.1" id="Capa_1" xmlns="http://www.w3.org/2000/svg" xmlns:xlink="http://www.w3.org/1999/xlink" x="0px" y="0px"
	 viewBox="0 0 512 512" style="enable-background:new 0 0 512 512;" xml:space="preserve">
<g>
	<g>
		<g>
			<path d="M392.533,153.6c-65.875,0-119.467,45.933-119.467,102.4c0,53.86,48.789,98.035,110.457,102.008
				C378.681,415.375,323.408,460.8,256,460.8c-49.037,0-93.624-24.758-114.766-61.985l21.516,7.902
				c4.423,1.625,9.326-0.644,10.95-5.067c1.625-4.423-0.644-9.326-5.067-10.95l-40.054-14.708c-4.18-1.579-8.861,0.414-10.62,4.521
				c-0.064,0.119-0.149,0.218-0.207,0.339c-0.031,0.076-0.098,0.13-0.127,0.207l-14.704,40.051
				c-1.625,4.425,0.646,9.33,5.071,10.954c4.425,1.625,9.33-0.646,10.954-5.071l7.297-19.879
				c24.042,43.042,73.59,70.754,129.757,70.754c76.861,0,139.777-53.051,144.597-119.817C462.709,354.469,512,310.133,512,256
				C512,199.533,458.408,153.6,392.533,153.6z M392.533,341.333c-56.462,0-102.4-38.283-102.4-85.333s45.938-85.333,102.4-85.333
				c56.463,0,102.4,38.283,102.4,85.333S448.996,341.333,392.533,341.333z"/>
			<path d="M136.533,230.4c0,9.426-7.641,17.067-17.067,17.067c-2.263-0.001-4.434,0.898-6.035,2.499
				c-1.6,1.6-2.499,3.771-2.499,6.035v17.067c0,4.713,3.82,8.533,8.533,8.533s8.533-3.82,8.533-8.533v-9.617
				c17.175-4.435,28.091-21.285,25.117-38.772c-2.974-17.487-18.846-29.782-36.522-28.29C98.92,197.88,85.333,212.662,85.333,230.4
				c0,4.713,3.821,8.533,8.533,8.533c4.713,0,8.533-3.821,8.533-8.533c0-9.426,7.641-17.067,17.067-17.067
				S136.533,220.974,136.533,230.4z"/>
			<path d="M122.708,315.05c1.034-0.434,1.986-1.04,2.817-1.792c2.444-2.441,3.154-6.125,1.792-9.3
				c-0.432-1.035-1.038-1.987-1.792-2.817c-2.451-2.425-6.123-3.133-9.3-1.792c-1.045,0.412-2.001,1.02-2.817,1.792
				c-0.754,0.829-1.36,1.782-1.792,2.817c-0.48,1.012-0.715,2.123-0.683,3.242c-0.03,2.855,1.385,5.532,3.761,7.115
				S120.084,316.175,122.708,315.05z"/>
			<path d="M409,217.383c-2.041-7.504-8.899-12.678-16.675-12.582s-14.503,5.438-16.359,12.99L358.6,296.833
				c-1.013,4.602,1.898,9.154,6.5,10.167c4.602,1.012,9.154-1.898,10.167-6.5l5.958-27.433h22.547L409.8,300.5
				c0.86,3.909,4.322,6.696,8.325,6.7c0.619-0.001,1.237-0.068,1.842-0.2c2.211-0.485,4.138-1.83,5.357-3.736
				c1.219-1.907,1.63-4.22,1.143-6.43L409,217.383z M384.931,256l7.502-34.542l7.59,34.542H384.931z"/>
			<path d="M238.933,256c0-53.86-48.789-98.035-110.457-102.008C133.319,96.625,188.592,51.2,256,51.2
				c49.037,0,93.624,24.758,114.766,61.985l-21.516-7.902c-2.124-0.782-4.471-0.687-6.525,0.263
				c-2.054,0.95-3.646,2.679-4.425,4.804c-0.781,2.124-0.686,4.471,0.265,6.525s2.678,3.646,4.802,4.425l40.054,14.708
				c4.18,1.579,8.861-0.414,10.62-4.521c0.063-0.119,0.149-0.218,0.207-0.339c0.031-0.076,0.098-0.13,0.127-0.207l14.704-40.05
				c1.625-4.425-0.646-9.33-5.071-10.954c-4.425-1.625-9.33,0.646-10.954,5.071l-7.297,19.879
				C361.715,61.846,312.167,34.133,256,34.133c-76.861,0-139.777,53.051-144.597,119.817C49.291,157.531,0,201.867,0,256
				c0,56.467,53.592,102.4,119.467,102.4S238.933,312.467,238.933,256z M17.067,256c0-47.05,45.938-85.333,102.4-85.333
				s102.4,38.283,102.4,85.333s-45.938,85.333-102.4,85.333S17.067,303.05,17.067,256z"/>
		</g>
	</g>
</g>
<g>
</g>
<g>
</g>
<g>
</g>
<g>
</g>
<g>
</g>
<g>
</g>
<g>
</g>
<g>
</g>
<g>
</g>
<g>
</g>
<g>
</g>
<g>
</g>
<g>
</g>
<g>
</g>
<g>
</g>
</svg>
